<svg width="40" height="40" viewBox="0 0 40 40" fill="none" xmlns="http://www.w3.org/2000/svg">
<g clip-path="url(#clip0_1211_70574)">
<path d="M28.1159 35.6654C30.4171 35.6654 32.2825 33.7999 32.2825 31.4987C32.2825 29.1975 30.4171 27.332 28.1159 27.332C25.8147 27.332 23.9492 29.1975 23.9492 31.4987C23.9492 33.7999 25.8147 35.6654 28.1159 35.6654Z" fill="#F8FDFE"/>
</g>
<g clip-path="url(#clip1_1211_70574)">
<path d="M15.4499 35.6654C17.7511 35.6654 19.6165 33.7999 19.6165 31.4987C19.6165 29.1975 17.7511 27.332 15.4499 27.332C13.1487 27.332 11.2832 29.1975 11.2832 31.4987C11.2832 33.7999 13.1487 35.6654 15.4499 35.6654Z" fill="#F8FDFE"/>
</g>
<g clip-path="url(#clip2_1211_70574)">
<path d="M36.0326 11.5821V11.7987L33.5992 20.7988C33.3117 21.867 32.6779 22.8097 31.7973 23.4792C30.9166 24.1487 29.8388 24.5073 28.7326 24.4988H15.9826C14.7309 24.5038 13.5228 24.0393 12.5971 23.1968C11.6713 22.3544 11.0952 21.1954 10.9825 19.9488L9.89922 7.68207C9.86167 7.26654 9.66964 6.8802 9.36105 6.59939C9.05247 6.31857 8.64978 6.16371 8.23255 6.16541H4.61589C4.17386 6.16541 3.74994 5.98981 3.43737 5.67725C3.12481 5.36469 2.94922 4.94077 2.94922 4.49874C2.94922 4.05671 3.12481 3.63279 3.43737 3.32023C3.74994 3.00767 4.17386 2.83207 4.61589 2.83207H8.23255C9.48423 2.82699 10.6923 3.29157 11.618 4.13401C12.5438 4.97644 13.1199 6.13546 13.2326 7.38207V7.83207H32.7159C33.191 7.82835 33.6615 7.92623 34.0957 8.11917C34.5298 8.31211 34.9178 8.59564 35.2334 8.95076C35.5491 9.30588 35.7852 9.72437 35.9259 10.1782C36.0666 10.632 36.1087 11.1107 36.0492 11.5821H36.0326Z" fill="#F8FDFE"/>
</g>
<defs>
<clipPath id="clip0_1211_70574">
<rect width="10" height="9" fill="white" transform="translate(23 27)"/>
</clipPath>
<clipPath id="clip1_1211_70574">
<rect width="9" height="9" fill="white" transform="translate(11 27)"/>
</clipPath>
<clipPath id="clip2_1211_70574">
<rect width="34" height="22" fill="white" transform="translate(2.5 2.5)"/>
</clipPath>
</defs>
</svg>
